<svg width="33" height="32" viewBox="0 0 33 32" fill="none" xmlns="http://www.w3.org/2000/svg">
<circle cx="16.5" cy="16" r="16" fill="#175CE1"/>
<path d="M16.2582 10.232C17.6662 10.232 18.8502 10.872 19.2182 12.248H21.3782C21.0422 9.86401 18.9782 8.31201 16.3062 8.31201C12.7862 8.31201 10.4662 10.84 10.4662 14.392C10.4662 17.992 12.7542 20.376 16.0342 20.376C17.6182 20.376 18.9462 19.752 19.5862 18.856L19.7142 20.2H21.4422V13.624H16.0022V15.432H19.5382V15.48C19.5382 17.352 18.3062 18.472 16.2742 18.472C14.1142 18.472 12.6102 17.048 12.6102 14.44C12.6102 11.912 13.9382 10.232 16.2582 10.232Z" fill="#FCFCFC"/>
</svg>
