<svg width="34" height="30" viewBox="0 0 34 30" fill="none" xmlns="http://www.w3.org/2000/svg">
<path d="M24.4 0.170044C21.3833 0.170044 18.6833 1.63671 17 3.88671C16.1402 2.73473 15.0237 1.79903 13.7392 1.15387C12.4547 0.508707 11.0374 0.171853 9.59998 0.170044C4.48331 0.170044 0.333313 4.33671 0.333313 9.48671C0.333313 11.47 0.64998 13.3034 1.19998 15.0034C3.83331 23.3367 11.95 28.32 15.9666 29.6867C16.5333 29.8867 17.4666 29.8867 18.0333 29.6867C22.05 28.32 30.1666 23.3367 32.8 15.0034C33.35 13.3034 33.6666 11.47 33.6666 9.48671C33.6666 4.33671 29.5166 0.170044 24.4 0.170044Z" fill="url(#paint0_linear_11_142)"/>
<defs>
<linearGradient id="paint0_linear_11_142" x1="2.33331" y1="0.333455" x2="19.3333" y2="22.5001" gradientUnits="userSpaceOnUse">
<stop stop-color="#175CE1" stop-opacity="0.71"/>
<stop offset="1" stop-color="#A75FD2" stop-opacity="0.94"/>
</linearGradient>
</defs>
</svg>
